<?xml version="1.0" encoding="utf-8"?>
<!-- Generator: Adobe Illustrator 25.4.1, SVG Export Plug-In . SVG Version: 6.00 Build 0)  -->
<svg version="1.1" id="Layer_1" xmlns="http://www.w3.org/2000/svg" xmlns:xlink="http://www.w3.org/1999/xlink" x="0px" y="0px"
	 viewBox="0 0 1048.8 368.5" style="enable-background:new 0 0 1048.8 368.5;" xml:space="preserve">
<style type="text/css">
	.st0{fill:#1E8DCE;}
	.st1{fill:#5EB1E3;}
	.st2{fill:#E41517;}
	.st3{fill:#EE745A;}
	.st4{fill:#FBBA00;}
	.st5{fill:#FED76D;}
	.st6{fill:#60519D;}
	.st7{fill:#847AB6;}
	.st8{fill:#ED6EA7;}
	.st9{fill:#F08AB7;}
	.st10{fill:#009B3E;}
	.st11{fill:#010202;}
</style>
<g>
	<g>
		<path class="st0" d="M528.4,247.2h72c1.1,0,2.1,0.8,2.2,1.9c1.3,8,8.2,13.8,16.3,13.8c8.1,0,14.9-5.8,16.2-13.8
			c0.2-1.1,1.1-1.9,2.2-1.9h30.2V232c0-10.9-24.4-16.9-45.3-18.6c-0.4,0-0.7-0.2-1-0.4l-33.5-21.5H506l-0.5,0.1
			c-2.5,0.6-31.4,8.6-38.4,32.2c-1.8,6.1-1.3,11.2,1.6,15.1c5.4,7.3,17.8,8.3,22.8,8.4c1.1,0,2,0.8,2.2,1.8
			c1.5,7.8,8.3,13.4,16.2,13.4c7.9,0,14.7-5.7,16.2-13.4C526.3,248,527.3,247.2,528.4,247.2z"/>
		<path d="M618.9,267.5c-9.7,0-18-6.5-20.4-15.7h-68.3c-2.6,8.9-10.8,15.3-20.2,15.3c-9.5,0-17.7-6.3-20.3-15.3
			c-7.3-0.3-18.7-2.2-24.6-10.1c-3.8-5.1-4.6-11.5-2.4-19.1c7.9-26.6,40.4-35,41.8-35.3c0.1,0,0.2,0,0.3-0.1l0.8-0.1
			c0.1,0,0.2,0,0.3,0h82.5c0.4,0,0.9,0.1,1.2,0.4l33.6,21.5c15.2,1.3,48.9,6.2,48.9,23.1v17.5c0,1.3-1,2.3-2.3,2.3h-30.6
			C636.8,261,628.5,267.5,618.9,267.5z M528.4,247.2h72c1.1,0,2.1,0.8,2.2,1.9c1.3,8,8.2,13.8,16.3,13.8c8.1,0,14.9-5.8,16.2-13.8
			c0.2-1.1,1.1-1.9,2.2-1.9h30.2V232c0-10.9-24.4-16.9-45.3-18.6c-0.4,0-0.7-0.2-1-0.4l-33.5-21.5H506l-0.5,0.1
			c-2.5,0.6-31.4,8.6-38.4,32.2c-1.8,6.1-1.3,11.2,1.6,15.1c5.4,7.3,17.8,8.3,22.8,8.4c1.1,0,2,0.8,2.2,1.8
			c1.5,7.8,8.3,13.4,16.2,13.4c7.9,0,14.7-5.7,16.2-13.4C526.3,248,527.3,247.2,528.4,247.2z"/>
		<g>
			<path class="st1" d="M543.2,217.5c46.6,16.9,91.4,23.2,124.4,19.6V232c0-10.9-24.4-16.9-45.3-18.6c-0.4,0-0.7-0.2-1-0.4
				l-33.5-21.5H506l-0.5,0.1c-0.9,0.2-5.5,1.5-11.3,4.2C509.1,203.8,525.6,211.1,543.2,217.5z"/>
		</g>
	</g>
	<g>
		<path class="st2" d="M289.7,247C289.8,247,289.8,247,289.7,247l69,0.1c1.1,0,2.1,0.8,2.2,1.9c0.5,3.4,2.1,6.5,4.6,9
			c3.1,3.1,7.3,4.8,11.7,4.9c8.1,0,14.9-5.8,16.3-13.8c0.2-1.1,1.1-1.9,2.2-1.9c0,0,0,0,0,0l30.1,0.1l0.1-0.9
			c0.6-9.2-1.7-16.6-6.8-22.2c-9-9.6-24.2-11.1-32.5-11.1c-1.2,0-2.3,0-3,0.1c-0.6,0-1.3-0.2-1.7-0.6
			c-11.2-10.9-26.5-22.6-36.1-22.7l-15.2,0l-26.3,0l-6,0c-17.8,0-31,15.9-34.7,20.8c-0.4,0.6-1.1,0.9-1.9,0.9
			c-17.2-0.2-28.8,3.9-34.5,12.1c-6.9,9.9-2.4,22-2.2,22.5l0.2,0.6l29.2,0c1.1,0,2.1,0.8,2.2,1.9c1.3,7.5,7.7,13,15.4,13
			c7.5,0,14-5.4,15.3-12.9C287.7,247.8,288.6,247,289.7,247z"/>
		<path d="M377.3,267.5c-5.7,0-11-2.2-14.9-6.2c-2.7-2.7-4.6-6-5.5-9.6l-65.3-0.1c-2.4,8.7-10.3,14.8-19.4,14.8
			c-9.2,0-17.1-6.2-19.5-14.9l-28.9,0c-0.9,0-1.8-0.6-2.1-1.5l-0.8-2.1c-0.2-0.6-5.5-14.9,2.7-26.7c6.4-9.3,18.9-14,37.1-14
			c0,0,0.1,0,0.1,0c4.8-6.2,18.8-21.7,37.6-21.7l6,0l26.3,0l15.2,0c13.3,0,32.1,17,38.6,23.3c0.6,0,1.4,0,2.2,0
			c9,0,25.7,1.6,35.8,12.5c6.1,6.5,8.8,15.1,8,25.6l-0.2,3c-0.1,1.2-1.1,2.1-2.3,2.1c0,0,0,0,0,0l-30.4-0.1
			C395.2,261,386.9,267.5,377.3,267.5z M289.7,247C289.8,247,289.8,247,289.7,247l69,0.1c1.1,0,2.1,0.8,2.2,1.9
			c0.5,3.4,2.1,6.5,4.6,9c3.1,3.1,7.3,4.8,11.7,4.9c8.1,0,14.9-5.8,16.3-13.8c0.2-1.1,1.1-1.9,2.2-1.9c0,0,0,0,0,0l30.1,0.1l0.1-0.9
			c0.6-9.2-1.7-16.6-6.8-22.2c-9-9.6-24.2-11.1-32.5-11.1c-1.2,0-2.3,0-3,0.1c-0.6,0-1.3-0.2-1.7-0.6
			c-11.2-10.9-26.5-22.6-36.1-22.7l-15.2,0l-26.3,0l-6,0c-17.8,0-31,15.9-34.7,20.8c-0.4,0.6-1.1,0.9-1.9,0.9
			c-17.2-0.2-28.8,3.9-34.5,12.1c-6.9,9.9-2.4,22-2.2,22.5l0.2,0.6l29.2,0c1.1,0,2.1,0.8,2.2,1.9c1.3,7.5,7.7,13,15.4,13
			c7.5,0,14-5.4,15.3-12.9C287.7,247.8,288.6,247,289.7,247z"/>
		<g>
			<path class="st3" d="M313.1,218.5c43.3,15.7,84.5,21.8,112.4,18.5c-1-5-3.1-9.3-6.3-12.8c-9-9.6-24.2-11.1-32.5-11.1
				c-1.2,0-2.3,0-3,0.1c-0.6,0-1.3-0.2-1.7-0.6c-11.2-10.9-26.5-22.6-36.1-22.7l-15.2,0l-26.3,0l-6,0c-10.5,0-19.4,5.6-25.7,11.1
				C285,207.3,298.6,213.2,313.1,218.5z"/>
		</g>
	</g>
	<g>
		<path class="st4" d="M939.9,248.7h53.2c1.2,0,2.3,0.9,2.5,2.1c1,6.9,7,12.2,14.1,12.2c7,0,13-5.2,14-12.2c0.2-1.2,1.2-2.1,2.5-2.1
			l0,0c4.1,0,11.5-0.7,15.3-5.1c1.9-2.2,2.7-5.2,2.2-8.6c0,0,0,0,0,0l-1.4-9.7c-1-6.8-6.3-11.4-13.1-11.4h-10.9
			c-0.6,0-1.2-0.2-1.6-0.6l-33.9-30.2c0,0-0.1,0-0.1,0h-74.4l-0.6,0.1c-1.5,0.5-13.5,5.2-16.4,30c-1.9,16-0.5,26.8,4.2,31.9
			c2.1,2.4,5,3.6,8.4,3.6h3.3c1.2,0,2.3,0.9,2.5,2.1c1,6.9,7,12.2,14,12.2c7,0,13-5.2,14-12.2C937.6,249.6,938.7,248.7,939.9,248.7z
			"/>
		<path d="M1009.6,267.5c-8.6,0-16.1-6-18.2-14.2h-49.8c-2.1,8.2-9.5,14.2-18.2,14.2c-8.6,0-16.1-6-18.2-14.2h-1.6
			c-4.7,0-8.8-1.8-11.8-5.2c-5.6-6.3-7.3-17.9-5.3-35.5c1.4-11.9,5-21.1,10.6-27.4c4.5-5,8.7-6.3,9.2-6.4c0.1,0,0.2,0,0.3-0.1
			l0.9-0.1c0.1,0,0.2,0,0.3,0h75.5c0.6,0,1.1,0.2,1.5,0.6l34,30.2h10.1c9.1,0,16.2,6.1,17.6,15.2l1.4,9.7c0.7,4.8-0.4,9-3.2,12.3
			c-4.5,5.2-12,6.4-17.1,6.6C1025.7,261.5,1018.2,267.5,1009.6,267.5z M939.7,248.7h53.5c1.1,0,2.1,0.8,2.3,2c1,7,7,12.3,14.1,12.3
			c7.1,0,13.1-5.3,14.1-12.3c0.2-1.1,1.1-2,2.3-2h0.2c4.1,0,11.5-0.7,15.3-5.1c1.9-2.2,2.7-5.2,2.2-8.6c0,0,0,0,0,0l-1.4-9.7
			c-1-6.8-6.3-11.4-13.1-11.4h-11c-0.6,0-1.1-0.2-1.5-0.6l-34-30.2h-74.5l-0.6,0.1c-1.5,0.5-13.5,5.2-16.4,30
			c-1.9,16-0.5,26.8,4.2,31.9c2.1,2.4,5,3.6,8.4,3.6h3.5c1.1,0,2.1,0.8,2.3,2c1,7,7,12.3,14.1,12.3c7,0,13.1-5.3,14.1-12.3
			C937.6,249.5,938.6,248.7,939.7,248.7z"/>
		<g>
			<path class="st5" d="M1043.6,235l-1.4-9.7c-1-6.8-6.3-11.4-13.1-11.4h-11c-0.6,0-1.1-0.2-1.5-0.6l-34-30.2h-74.5l-0.6,0.1
				c-0.2,0.1-0.8,0.3-1.5,0.6c16.9,15.3,42.1,30.1,72,40.9c23.2,8.4,45.9,13.2,65.5,14.5C1043.8,237.9,1043.8,236.5,1043.6,235
				C1043.6,235,1043.6,235,1043.6,235z"/>
		</g>
	</g>
	<g>
		<path class="st6" d="M18.9,188.5c-4.9,0-8.9,4.8-11.7,14.3c-2.8,9.5-2.8,16.6,0.1,20.5c1.3,1.8,3.2,2.9,5.5,3.2
			c1,0.1,1.7,0.9,1.9,1.9c0.3,1.8,0.5,4.6,0.5,8.2c0,7.9,8.9,10,16.4,10.3c1,0.1,1.9,0.8,2.1,1.8c1.7,8.3,9.1,14.3,17.5,14.3
			c8.5,0,16-6.3,17.6-14.7c0.2-1.1,1.1-1.9,2.2-1.9c12.8,0.1,28.3,0.1,42.5,0.1c1.1,0,2,0.7,2.2,1.8c1.8,8.1,9.1,14,17.4,14
			c8.4,0,15.7-6,17.5-14.2c0.2-1,1.1-1.8,2.1-1.8c0.6,0,1.1,0,1.4-0.1c9.6-1,21.2-3.5,22-10.3c0.9-8,0.1-13.4-2.3-16.1
			c-0.8-0.9-1.7-1.5-2.8-1.7c-0.9-0.2-1.5-0.9-1.7-1.8c-0.6-3.6-2.3-8.4-6.8-10.4c-4.7-2.1-18.2-4-29.3-5.1c-0.4,0-0.8-0.2-1.2-0.5
			c-1-0.8-3.3-3-7.6-8.7c-6.3-8.4-15.8-16.7-16.9-17.6l-0.3-0.2l-63.6,0c-3.9,0-10.6,5.7-17.8,15.2c-0.7,0.9-1.9,1.2-2.9,0.6
			C21.7,188.9,20.3,188.5,18.9,188.5z"/>
		<path d="M51.2,267.5c-10,0-18.8-6.7-21.5-16.2c-16.5-1.3-19.1-9.8-19.1-14.8c0-2.7-0.1-4.6-0.2-5.9c-2.2-0.6-4.7-1.9-6.7-4.6
			c-3.9-5.2-4.1-13.4-0.8-24.5c3.5-11.7,8.9-17.6,16.1-17.6c1.5,0,3,0.3,4.5,0.9c5.8-7.4,13.7-15.6,20.3-15.6l64.4,0
			c0.5,0,1.1,0.2,1.5,0.5l0.9,0.8c1.1,1,10.9,9.5,17.5,18.3c3.4,4.5,5.4,6.6,6.3,7.4c7.5,0.8,23.9,2.6,30,5.4
			c6,2.6,8.3,8.5,9.2,12.5c1.4,0.6,2.6,1.5,3.7,2.6c3.4,3.8,4.5,10.2,3.5,19.6c-0.9,7.9-9.6,12.7-26,14.4
			c-2.8,9.4-11.5,16.1-21.5,16.1c-9.8,0-18.5-6.5-21.4-15.8c-13,0-27.1-0.1-39-0.1C70.2,260.6,61.4,267.5,51.2,267.5z M18.9,188.5
			c-4.9,0-8.9,4.8-11.7,14.3c-2.8,9.5-2.8,16.6,0.1,20.5c1.3,1.8,3.2,2.9,5.5,3.2c1,0.1,1.7,0.9,1.9,1.9c0.3,1.8,0.5,4.6,0.5,8.2
			c0,7.9,8.9,10,16.4,10.3c1,0.1,1.9,0.8,2.1,1.8c1.7,8.3,9.1,14.3,17.5,14.3c8.5,0,16-6.3,17.6-14.7c0.2-1.1,1.1-1.9,2.2-1.9
			c12.8,0.1,28.3,0.1,42.5,0.1c1.1,0,2,0.7,2.2,1.8c1.8,8.1,9.1,14,17.4,14c8.4,0,15.7-6,17.5-14.2c0.2-1,1.1-1.8,2.1-1.8
			c0.6,0,1.1,0,1.4-0.1c9.6-1,21.2-3.5,22-10.3c0.9-8,0.1-13.4-2.3-16.1c-0.8-0.9-1.7-1.5-2.8-1.7c-0.9-0.2-1.5-0.9-1.7-1.8
			c-0.6-3.6-2.3-8.4-6.8-10.4c-4.7-2.1-18.2-4-29.3-5.1c-0.4,0-0.8-0.2-1.2-0.5c-1-0.8-3.3-3-7.6-8.7c-6.3-8.4-15.8-16.7-16.9-17.6
			l-0.3-0.2l-63.6,0c-3.9,0-10.6,5.7-17.8,15.2c-0.7,0.9-1.9,1.2-2.9,0.6C21.7,188.9,20.3,188.5,18.9,188.5z"/>
		<g>
			<path class="st7" d="M176.2,236c0-0.1,0-0.1,0-0.2c0.9-8,0.1-13.4-2.3-16.1c-0.8-0.9-1.7-1.5-2.8-1.7c-0.9-0.2-1.5-0.9-1.7-1.8
				c-0.6-3.6-2.3-8.4-6.8-10.4c-4.7-2.1-18.2-4-29.3-5.1c-0.4,0-0.8-0.2-1.2-0.5c-1-0.8-3.3-3-7.6-8.7c-6.3-8.4-15.8-16.7-16.9-17.6
				l-0.3-0.2l-63.6,0c-3.4,0-8.9,4.3-15.1,11.8c16.6,13.4,39.5,26.2,66,35.8C124.5,232.2,153.4,237,176.2,236z"/>
		</g>
	</g>
	<g>
		<path class="st8" d="M832.2,251c-1,0.1-1.8,0.7-2.1,1.6c-1.8,6-7.5,10.3-13.8,10.3c-6.3,0-12-4.2-13.8-10.2
			c-0.3-1-1.2-1.6-2.2-1.6h-18.7h-1.5H760c-1,0-1.9,0.7-2.2,1.6c-1.8,6-7.5,10.2-13.8,10.2c-6.3,0-12-4.2-13.8-10.3
			c-0.3-0.9-1.1-1.6-2.1-1.6c-15.9-0.9-17.1-10-17.1-12.7c0-17.4,19.4-20.3,21.7-20.5c0.7-0.1,1.3-0.4,1.6-1
			c3.7-5.5,17.8-23.4,45.9-23.4c28.1,0,42.2,17.9,45.9,23.4c0.4,0.6,1,0.9,1.6,1c2.2,0.3,21.7,3.1,21.7,20.5
			C849.4,241.1,848.1,250.2,832.2,251z"/>
		<path d="M829.3,213.4c-4.8-6.8-20.1-24.6-49.1-24.6c-29,0-44.3,17.8-49.1,24.6c-18.2,2.6-24.6,15-24.6,24.9
			c0,2.6,1,15.5,19.9,17.2c2.8,7.1,9.9,12,17.7,12c7.7,0,14.7-4.8,17.6-11.8h18.6h1.5h17.1c2.9,7,9.9,11.8,17.6,11.8
			c7.8,0,14.8-4.9,17.7-12c18.9-1.7,19.9-14.5,19.9-17.2C853.9,228.4,847.4,216,829.3,213.4z M832.2,251c-1,0.1-1.8,0.7-2.1,1.6
			c-1.8,6-7.5,10.3-13.8,10.3c-6.3,0-12-4.2-13.8-10.2c-0.3-1-1.2-1.6-2.2-1.6h-18.7h-1.5H760c-1,0-1.9,0.7-2.2,1.6
			c-1.8,6-7.5,10.2-13.8,10.2c-6.3,0-12-4.2-13.8-10.3c-0.3-0.9-1.1-1.6-2.1-1.6c-15.9-0.9-17.1-10-17.1-12.7
			c0-17.4,19.4-20.3,21.7-20.5c0.7-0.1,1.3-0.4,1.6-1c3.7-5.5,17.8-23.4,45.9-23.4c28.1,0,42.2,17.9,45.9,23.4c0.4,0.6,1,0.9,1.6,1
			c2.2,0.3,21.7,3.1,21.7,20.5C849.4,241.1,848.1,250.2,832.2,251z"/>
		<g>
			<path class="st9" d="M827.7,217.8c-0.7-0.1-1.3-0.4-1.6-1c-3.7-5.5-17.8-23.4-45.9-23.4c-18.5,0-31,7.8-38.4,14.7
				c11.7,6.5,24.8,12.6,38.9,17.7c24.4,8.9,48.2,13.7,68.5,14.6c0.2-0.9,0.2-1.6,0.2-2.1C849.4,220.9,829.9,218.1,827.7,217.8z"/>
		</g>
	</g>
</g>
<path class="st10" d="M125.9,37.7c-3.1,0-5.6,0.8-7.4,2.3c-1.7,1.5-2.9,3.1-3.6,5c-0.6,1.7-1.4,4.3-2.4,8L99.7,96.6L88.2,56.5
	c-1.4-4.8-2.5-8-3.3-10c-0.9-2.2-2.4-4.2-4.5-6c-2.2-1.9-5.3-2.9-9.1-2.9c-3.7,0-6.7,1-9,2.9c-2.1,1.8-3.6,3.8-4.4,5.8
	c-0.7,1.9-1.8,5.3-3.2,10.1L43.4,96.6L30.6,53c-1.5-5.3-3-9-4.4-11.2c-1.7-2.7-4.8-4-9.1-4c-3.3,0-6.1,1.2-8.4,3.4
	c-2.3,2.3-3.4,4.9-3.4,7.8c0,2.1,0.9,5.8,2.8,11l18.1,53.5c0.5,1.4,1.2,3.4,2.1,5.8c0.9,2.5,2,4.8,3.2,6.7c1.3,2,3,3.6,5,4.7
	c2,1.1,4.4,1.7,7.2,1.7h0c5.5,0,9.4-1.9,11.7-5.5c2-3.2,3.9-8,5.5-14.2l10.6-37.2l10.9,37.2c1.1,4,2.1,7.2,3.1,9.7
	c1,2.7,2.7,5.1,4.8,7c2.3,2,5.4,3,9.2,3c3.7,0,6.7-0.9,9-2.8c2.1-1.8,3.7-3.8,4.7-6.1c0.9-2.1,2.1-5.3,3.7-10L135.1,60
	c1.8-4.9,2.7-8.5,2.7-11.1c0-3.1-1.2-5.7-3.5-7.9C131.9,38.8,129.1,37.7,125.9,37.7z"/>
<path class="st10" d="M221.8,89.7c3.9-2,5.9-6.3,5.9-12.6c0-6.4-1.7-12.7-4.9-18.8c-3.3-6.1-8.2-11.2-14.8-15
	c-6.5-3.8-14.4-5.8-23.5-5.8c-6.9,0-13.3,1.1-19,3.4c-5.7,2.2-10.7,5.5-14.6,9.8c-3.9,4.2-7,9.3-9,15.2c-2,5.8-3.1,12.2-3.1,19
	c0,14.5,4.2,26.1,12.5,34.6c8.3,8.5,20.1,12.9,34.9,12.9c6.4,0,12.3-0.9,17.3-2.6c5-1.7,9.3-3.9,12.6-6.5c3.4-2.6,5.9-5.4,7.6-8.3
	c1.7-3,2.6-5.7,2.6-8c0-2.8-0.9-5.1-2.8-6.7c-1.8-1.6-4.1-2.4-6.8-2.4c-2.6,0-4.7,0.7-6.2,2c-2.8,2.6-5,4.6-6.7,6.2
	c-1.7,1.5-3.6,2.9-5.5,4.1c-1.9,1.2-3.9,2.2-5.9,2.7c-2,0.6-4.3,0.9-6.8,0.9c-3.6,0-7-0.9-10-2.7c-3-1.8-5.4-4.4-7.2-8
	c-1.6-3.1-2.5-6.7-2.8-10.6h41.8C213.4,92.4,218.3,91.5,221.8,89.7z M202,75.9h-36.3c0.9-6,2.8-10.7,5.8-13.8
	c3.2-3.5,7.3-5.2,12.3-5.2c5.4,0,9.5,1.7,12.8,5.1C199.5,65.1,201.3,69.8,202,75.9z"/>
<path class="st11" d="M309.4,43.3c-5.9-3.7-12.8-5.6-20.6-5.6c-6.7,0-12.5,1.2-17.1,3.7c-3.4,1.8-6.8,4.3-10.1,7.2l0-29.7
	c0-4.5-1.1-8.1-3.2-10.7c-2.2-2.7-5.4-4-9.4-4c-3.9,0-7,1.4-9.2,4.2c-2.1,2.7-3.1,6.5-3.1,11.5l0,97.6c0,4.7,1.1,8.3,3.3,10.8
	c2.2,2.6,5.3,3.9,9,3.9c3.6,0,6.7-1.3,9.1-3.8c1.9-2,3-4.8,3.4-8.2c1.1,1.2,2,2.1,2.9,2.9c1.6,1.5,3.5,2.9,5.8,4.4
	c2.3,1.4,5.1,2.6,8.3,3.5c3.2,0.9,6.6,1.3,10.2,1.3c5.9,0,11.4-1.2,16.3-3.6c4.9-2.4,9.2-5.8,12.6-10.2c3.4-4.3,6-9.5,7.8-15.3
	c1.8-5.8,2.7-12.3,2.7-19.2c0-9.4-1.6-17.7-4.8-24.6C320,52.5,315.3,47,309.4,43.3z M301.7,84.8c0,8.6-1.9,15.3-5.7,19.8
	c-3.7,4.5-8,6.6-13.1,6.6c-6.1,0-10.9-2.1-14.6-6.5c-3.8-4.4-5.7-10.9-5.7-19.3c0-5.8,0.9-10.8,2.7-14.9c1.8-4,4.2-7.2,7.2-9.3
	c3-2.1,6.4-3.1,10.3-3.1c3.8,0,7,1,9.8,3.1c2.8,2.1,5,5.1,6.6,9C300.9,74.3,301.7,79.2,301.7,84.8z"/>
<path class="st11" d="M416,41.6c-2.4-2.6-5.6-3.9-9.4-3.9c-3.9,0-7.1,1.3-9.5,4c-2.4,2.6-3.6,6.4-3.6,11.3l0,27.2
	c0,12.9-0.9,18.1-1.7,20c-1.4,3.2-3.6,5.9-6.6,7.9c-3,2-6.2,3-9.6,3c-3.4,0-6.1-0.8-8-2.5c-2-1.7-3.3-4.1-4.1-7.3
	c-0.8-3.4-1.3-7.6-1.3-12.6l0-35.8c0-4.9-1.2-8.7-3.6-11.3c-2.4-2.6-5.7-4-9.6-4c-3.9,0-7,1.3-9.4,3.9c-2.3,2.5-3.5,6.4-3.5,11.3
	l0,44.3c0,9.2,1.5,16.4,4.5,21.4c2.5,4.2,6.1,7.6,10.7,10c4.5,2.4,9.7,3.6,15.4,3.6c4.6,0,8.9-0.6,12.5-1.8c3.7-1.2,7.2-3,10.3-5.4
	c1.9-1.5,3.7-3.1,5.5-5c0.3,3.5,1.5,6.3,3.4,8.4c2.4,2.6,5.4,3.9,9,3.9c3.6,0,6.6-1.3,8.9-3.8c2.3-2.5,3.4-6.1,3.4-10.9l0-64.7
	C419.6,48,418.4,44.2,416,41.6z"/>
<path class="st11" d="M507.6,39.3c-1.8-1.1-3.8-1.6-5.8-1.6c-2.7,0-4.9,0.5-6.5,1.5c-1.6,1-3,2.8-4.3,5.5c-1.2,2.4-2.5,5.8-3.9,10
	l-16.1,46l-17.1-49.8c-1.3-4-2.9-7.2-4.7-9.4c-2-2.5-5-3.8-8.8-3.8c-2.2,0-4.3,0.6-6.3,1.7c-2,1.2-3.6,2.7-4.7,4.6
	c-1.2,1.9-1.8,4-1.8,6.3c0,2.1,0.9,5.2,2.7,9.4l27.2,68.6l-1.7,4.3c-1.5,3.7-2.8,6.3-3.9,8.1c-1,1.6-2.1,2.7-3.2,3.3
	c-1.7,0.9-4.2,1.5-8.4,0.5c-1.3-0.4-2.7-0.6-4-0.6c-3.5,0-6.3,0.9-8.2,2.6c-2,1.8-3,4.2-3,7.3c0,4.5,2.1,7.8,6.1,9.5
	c3.5,1.5,8.6,2.3,15.5,2.3c7,0,12.7-1.1,16.9-3.3c4.3-2.2,7.7-5.4,10.3-9.5c2.5-3.9,5-9.4,7.5-16.1l29.2-76.4c0.7-2,1.3-4,1.9-6
	c0.5-1.9,0.8-3.4,1.1-4.9c0-2-0.5-3.9-1.5-5.7C510.9,41.8,509.5,40.3,507.6,39.3z"/>
<path class="st10" d="M600.1,99.4c0.1-4.5,0.1-8.5,0.1-12.2c0-3.7,0-8.1,0-13.3c0-8.5-1.2-15.5-3.7-20.8c-2.5-5.4-6.9-9.5-12.9-12
	c-5.8-2.4-13.9-3.6-23.9-3.6c-9,0-16.7,1.3-22.8,3.7c-6.2,2.5-10.8,5.8-13.8,9.8c-3,4-4.6,8.2-4.6,12.6c0,3.1,1.1,5.6,3.4,7.6
	c2.2,1.9,4.8,2.9,7.8,2.9c3.4,0,5.7-0.7,6.9-2.2c0.9-1.1,2.4-3.2,4.5-6.4c1.9-2.9,4.1-5,6.7-6.4c2.6-1.4,6.6-2.1,11.9-2.1
	c6,0,9.9,1.1,11.6,3.4c1.7,2.2,2.7,5.7,3.1,10.3c-4.1,1.2-8,2.2-11.5,3c-4,1-8.8,2-14.4,3.1c-5.6,1.1-9.2,1.9-10.6,2.2
	c-7.1,1.6-12.9,4.7-17,9.3c-4.2,4.7-6.3,10.4-6.3,16.9c0,4.9,1.3,9.4,3.8,13.6c2.5,4.2,6.2,7.5,10.8,9.9c4.6,2.4,10,3.6,16,3.6
	c6.5,0,12.5-1.1,17.7-3.3c4.7-1.9,9.5-4.8,14.5-8.4c2.2,3.4,4.3,6,6.3,8c5.6,5.3,12,4.5,16.7,0.5c2.6-2.2,3.9-4.8,3.9-7.7
	c0-1-0.2-3-2.2-9.4C600.8,107.6,600.1,103.3,600.1,99.4z M574.5,88v0.6c0,7.4-0.9,12.7-2.8,15.8c-1.6,2.7-4.1,5-7.5,6.7
	c-3.4,1.8-7.3,2.7-11.4,2.7c-3.7,0-6.6-1-8.8-3.1c-2.2-2-3.2-4.4-3.2-7.3c0-2.7,0.8-4.8,2.6-6.2c2-1.6,4-2.8,6.1-3.3
	c2.4-0.6,6.8-1.6,12.9-2.9C567.4,90,571.4,89,574.5,88z"/>
<path class="st10" d="M695,62.8c-0.5-3.4-1.5-6.6-3-9.4c-2.5-5-6.2-9-11.2-11.7c-4.9-2.7-10.5-4.1-16.7-4.1c-6.3,0-12.1,1.3-17,3.9
	c-3.6,1.9-7.1,4.6-10.2,8c-0.2-2-0.7-3.7-1.5-5.3c-1.1-2.2-2.6-3.8-4.5-5c-1.9-1.1-4-1.7-6.3-1.7c-3.8,0-6.8,1.3-9,3.8
	c-2.2,2.5-3.3,6.1-3.3,10.8l0,64.6c0,4.8,1.2,8.6,3.6,11.3c2.4,2.8,5.6,4.2,9.4,4.2c3.9,0,7.1-1.3,9.5-4c2.4-2.6,3.7-6.5,3.7-11.5
	l0-28c0-8.9,0.5-15,1.5-18c1.4-3.8,3.6-6.8,6.5-8.9c3-2.1,6.2-3.2,9.8-3.2c5.4,0,8.9,1.6,10.6,4.8c1.9,3.6,2.9,9,2.9,16l0,37.2
	c0,4.8,1.2,8.6,3.6,11.3c2.4,2.8,5.6,4.2,9.5,4.2c3.8,0,7-1.4,9.4-4.1c2.4-2.6,3.5-6.5,3.5-11.4V75.2
	C695.7,70.3,695.4,66.1,695,62.8z"/>
<path class="st10" d="M719.5,165.5c7,0,12.7-1.1,16.9-3.3c4.3-2.2,7.7-5.4,10.3-9.5c2.5-3.9,5-9.4,7.5-16.1l29.2-76.4
	c0.7-2,1.3-4,1.9-6c0.5-2,0.9-3.5,1.1-4.9c0-2-0.5-4-1.5-5.8c-1-1.8-2.5-3.3-4.3-4.4c-1.8-1.1-3.8-1.6-5.8-1.6
	c-2.7,0-4.9,0.5-6.5,1.5c-1.6,1-3,2.8-4.3,5.5c-1.2,2.5-2.5,5.8-3.9,10l-16.1,46l-17.2-49.8c-1.3-4.1-2.9-7.2-4.7-9.4
	c-2-2.5-4.9-3.8-8.8-3.8c-2.2,0-4.3,0.6-6.3,1.7c-2,1.1-3.6,2.7-4.8,4.6c-1.1,1.9-1.7,4-1.7,6.3c0,2.1,0.9,5.2,2.7,9.4l27.3,68.6
	l-1.8,4.3c-1.5,3.6-2.8,6.3-3.9,8c-1,1.6-2.1,2.7-3.2,3.3c-1.7,0.9-4.4,1.4-8.4,0.5c-1.3-0.4-2.7-0.6-4-0.6c-3.5,0-6.3,0.9-8.2,2.6
	c-2,1.8-3,4.2-3,7.3c0,4.5,2.1,7.8,6.1,9.5c3.5,1.5,8.7,2.3,15.3,2.3H719.5z"/>
<path class="st11" d="M864.9,91c-2.8,0-5.2,0.9-7.1,2.6c-1.8,1.6-3.4,3.7-4.8,6.4c-2.3,4-4.9,6.9-7.9,8.8c-2.9,1.9-6.4,2.8-10.5,2.8
	c-3,0-5.9-0.6-8.4-1.8c-2.5-1.1-4.7-2.8-6.4-5.1c-1.8-2.3-3.2-5.1-4.2-8.3c-1-3.4-1.5-7.1-1.5-11c0-8.5,1.9-15.2,5.6-20
	c3.7-4.7,8.4-7,14.5-7c4.2,0,7.6,0.9,10.3,2.8c2.8,1.9,5.5,4.9,8.1,8.9c1.6,2.3,3.1,3.9,4.5,5c1.6,1.2,3.5,1.8,5.8,1.8
	c3.3,0,6.2-1.1,8.5-3.3c2.4-2.2,3.6-5,3.6-8.2c0-3-1-6.1-2.9-9.4c-1.9-3.2-4.6-6.3-8.1-9.1c-3.5-2.8-7.8-5.1-12.9-6.8
	c-5-1.8-10.6-2.6-16.6-2.6c-9.6,0-18.1,2-25,6c-7,4-12.5,9.8-16.2,17.1c-3.7,7.3-5.5,15.8-5.5,25.2c0,14,4.1,25.3,12.2,33.7
	c8.1,8.4,19.4,12.7,33.7,12.7c6.7,0,12.8-0.9,18.1-2.7c5.4-1.8,9.9-4.3,13.5-7.3c3.6-3,6.3-6.3,8.1-9.6c1.8-3.4,2.7-6.7,2.7-9.8
	c0-2.8-1.1-5.4-3.2-7.9C871,92.3,868.2,91,864.9,91z"/>
<path class="st11" d="M967.5,99c0.1-4.4,0.1-8.3,0.1-11.9c0-3.7,0-8.1,0-13.4c0-8.5-1.2-15.5-3.7-20.8c-2.5-5.5-6.9-9.5-12.9-12
	c-5.8-2.4-13.9-3.6-23.9-3.6c-9,0-16.7,1.2-22.7,3.7c-6.2,2.5-10.8,5.8-13.8,9.8c-3,4-4.5,8.2-4.5,12.6c0,3.1,1.1,5.6,3.4,7.6
	c2.2,1.9,4.8,2.9,7.8,2.9c3.4,0,5.7-0.7,6.9-2.2c0.9-1.1,2.4-3.2,4.5-6.4c1.9-2.9,4.1-5,6.7-6.4c2.6-1.4,6.6-2.1,11.9-2.1
	c6,0,9.9,1.1,11.6,3.4c1.7,2.2,2.7,5.7,3.1,10.3c-4.1,1.2-8,2.2-11.5,3c-4,1-8.8,2-14.4,3.1c-5.7,1.1-9.2,1.9-10.6,2.2
	c-7.1,1.6-12.9,4.7-17,9.3c-4.2,4.6-6.3,10.3-6.3,16.9c0,4.9,1.3,9.5,3.8,13.6c2.5,4.2,6.1,7.5,10.8,9.9c4.6,2.4,10,3.6,16,3.6
	c6.5,0,12.5-1.1,17.7-3.3c4.7-1.9,9.5-4.8,14.5-8.4c2.2,3.4,4.3,6,6.3,8c5.5,5.3,12,4.6,16.7,0.4c2.6-2.2,3.9-4.8,3.9-7.7
	c0-1-0.2-3-2.2-9.4C968.1,107.5,967.5,103.3,967.5,99z M941.9,88v0.6c0,7.4-0.9,12.7-2.8,15.8c-1.6,2.7-4.1,5-7.5,6.7
	c-3.5,1.8-7.3,2.7-11.4,2.7c-3.7,0-6.6-1-8.8-3c-2.2-2-3.2-4.4-3.2-7.3c0-2.7,0.8-4.7,2.6-6.2c2-1.6,4-2.8,6.1-3.3
	c2.4-0.6,6.7-1.6,12.9-2.9C934.8,90,938.8,89,941.9,88z"/>
<path class="st11" d="M1033.5,63.7c2.7,0,5.2-1.1,7.4-3.2c2.3-2.2,3.4-4.9,3.4-8.2c0-4.6-2.6-8.3-7.6-11c-4.7-2.5-9.6-3.7-14.6-3.7
	c-5.1,0-9.3,1.3-12.5,4c-1.9,1.6-3.8,3.8-5.7,6.4c-0.5-2.4-1.3-4.4-2.4-6c-2-2.9-5.2-4.3-9.6-4.3c-5.8,0-12.8,2.9-12.8,17l0,62.2
	c0,4.9,1.2,8.8,3.6,11.4c2.4,2.7,5.6,4.1,9.3,4.1c3.8,0,7-1.4,9.5-4c2.5-2.6,3.7-6.5,3.7-11.5l0-18.6c0-6.8,0.2-12.3,0.7-16.9
	c0.4-4.5,1.2-8.4,2.3-11.6c1-3,2.4-5.3,4.2-6.8c3.1-2.6,7.9-2.9,14.5-0.7C1031.3,63.5,1032.7,63.7,1033.5,63.7z"/>
<path class="st10" d="M835.5,138.1L835.5,138.1L835.5,138.1L835.5,138.1z"/>
<g>
	<path class="st10" d="M241.2,351.7c-15.1,0-18.8-9.4-18.8-13.3c0-1.8,1.3-5,4.9-5c3.8,0,4.7,2.9,5.7,4.8c1.3,2.5,3,5.1,8.1,5.1
		c4.1,0,7.6-1.8,7.6-5.1c0-4.1-4.3-5.2-10.3-6.6c-5.2-1.3-15.3-3.7-15.3-13.7c0-8.4,7.7-12.8,18.1-12.8c14.3,0,16.8,8.8,16.8,10.9
		c0,3.1-1.8,5.1-4.5,5.1c-2.6,0-4.2-1.8-4.6-2.5c-2.3-3.3-2.8-4-4.7-4.9c-1.3-0.6-2.7-0.7-3.7-0.7c-3.7,0-6.6,1.4-6.6,3.8
		c0,3,4,4,9.5,5.2c3,0.7,8.9,2.5,12.1,4.7c3,2.2,4.7,6.3,4.7,10C260.1,344.9,254,351.7,241.2,351.7z"/>
	<path class="st10" d="M274.5,337.5c0.1,6,4.9,7.2,6.9,7.2c3.5,0,6.1-2.1,7.2-2.9c1.3-0.9,2.6-2,4.3-2c2.3,0,4.1,2,4.1,3.8
		c0,3.7-5.3,8.1-15.2,8.1c-13.7,0-18.2-8.6-18.2-17c0-7.1,3.7-17.1,17.3-17.1c12.4,0,16.2,9.3,16.2,13.9c0,1.3-0.4,4.3-3.5,5.5
		c-1.3,0.5-3.8,0.6-5.2,0.6H274.5z M286.8,331.8c0.1-4.2-2.5-7.2-6.3-7.2c-5.3,0-5.9,5.6-6,7.2H286.8z"/>
	<path class="st10" d="M312.3,342.9c0,3.8,0,5.8-1.4,7.2c-0.8,0.8-2.1,1.6-3.9,1.6c-1.4,0-2.8-0.6-3.9-1.6c-1.4-1.4-1.4-3.4-1.4-7.2
		v-29c0-3.8,0.1-5.7,1.4-7.2c0.8-0.8,2.1-1.6,3.9-1.6c1.4,0,2.8,0.6,3.9,1.6c1.4,1.4,1.4,3.4,1.4,7.2V342.9z"/>
	<path class="st10" d="M328.8,342.9c0,3.8,0,5.8-1.4,7.2c-0.8,0.8-2.1,1.6-3.9,1.6c-1.4,0-2.8-0.6-3.9-1.6c-1.4-1.4-1.4-3.4-1.4-7.2
		v-29c0-3.8,0.1-5.7,1.4-7.2c0.8-0.8,2.1-1.6,3.9-1.6c1.4,0,2.8,0.6,3.9,1.6c1.4,1.4,1.4,3.4,1.4,7.2V342.9z"/>
	<path class="st10" d="M344.7,342.9c0,3.8-0.1,5.8-1.4,7.2c-0.8,0.8-2.1,1.6-3.9,1.6c-1.4,0-2.8-0.6-3.9-1.6
		c-1.4-1.4-1.4-3.4-1.4-7.2v-16.5c0-3.8,0-5.7,1.4-7.1c0.9-0.9,2.3-1.7,3.9-1.7c1.1,0,4.5,0.6,5.2,4.3c0.3,1.4,0.2,1.9,0.2,4.5
		V342.9z M339.4,314.9c-2.7,0-4.9-2.2-4.9-4.9s2.2-4.9,4.9-4.9c2.7,0,4.9,2.2,4.9,4.9S342.1,314.9,339.4,314.9z"/>
	<path class="st10" d="M381.8,342.9c0,3.8,0,5.8-1.4,7.2c-0.7,0.7-2,1.6-3.8,1.6c-1.4,0-2.9-0.6-4-1.6c-1.4-1.4-1.4-3.4-1.4-7.2
		v-9.3c0-3.2,0.1-7.9-4.9-7.9c-2,0-4.5,1.1-5.5,4.3c-0.4,1.2-0.4,4.3-0.4,5.7v7.2c0,3,0.5,8.8-5.4,8.8c-5.2,0-5.3-4.5-5.3-8.8v-17.1
		c0-3.6,0-5.4,1.3-6.7c0.9-0.8,1.5-1.5,3.7-1.5c0.7,0,5,0.2,4.9,5.8c2.9-3.8,6.4-5.8,11.1-5.8c3.2,0,8,0.8,10.1,6
		c1.1,2.5,1.1,6.4,1.1,8.1V342.9z"/>
	<path class="st10" d="M420,347.5c0,10.5-2.5,16.7-16.9,16.7c-4.5,0-8.7-0.5-12.2-2.6c-3.5-2.1-3.8-4.1-3.8-5.5
		c0-2.7,2.3-4.2,4.5-4.2c2.3,0,3.6,1.3,5.3,3.1c1.3,1.3,2.8,2,5.7,2c6.6,0,6.7-2.9,6.9-8c0.1-1.7,0-2.5-0.1-3.5c-1,1.4-3.8,5-9.7,5
		c-8.3,0-13.4-7.1-13.4-16.9c0-6.7,1.9-9.6,3.5-11.5c2.6-3,6-4.5,10-4.5c6.3,0,9.3,4,10.5,5.5c0.3-2.3,0.4-2.6,0.9-3.3
		c1.1-1.7,2.6-2.3,4-2.3c1.1,0,3.7,0.4,4.6,3.3c0.3,1.1,0.4,2.2,0.4,5.6V347.5z M403.1,342.7c3.6,0,6.4-3,6.4-8.2
		c0-5.9-2.7-8.9-6.4-8.9c-6.2,0-6.2,7.3-6.2,8.8C396.8,338.3,398.2,342.7,403.1,342.7z"/>
	<path class="st10" d="M472.9,313.9c2-7.4,2.1-8.1,10.1-8.1c3.2,0,5.4,0.2,7,2.7c0.9,1.3,0.9,3.1,0.9,7v27.9c0,3.6,0,5.4-1.3,6.7
		c-0.8,0.8-2,1.6-3.7,1.6c-1.3,0-2.7-0.6-3.7-1.5c-1.3-1.3-1.3-3.2-1.3-6.7V316l-7,27.5c-1,3.9-1.4,5.8-2.9,6.9
		c-0.9,0.7-2.2,1.3-3.8,1.3c-1.3,0-2.7-0.5-3.8-1.3c-1.4-1.1-1.9-3-2.9-6.9l-7-27.5v27.5c0,3.6,0.1,5.4-1.3,6.7
		c-0.8,0.8-2,1.6-3.7,1.6c-1.3,0-2.7-0.6-3.7-1.5c-1.3-1.3-1.3-3.2-1.3-6.7v-27.9c0-5.1,0-6.2,1.7-8c1.6-1.7,3.3-1.7,6.3-1.7
		c4.8,0,6.2,0.1,7.9,2c0.9,0.9,1.1,2.2,2.2,6.2l5.5,21L472.9,313.9z"/>
	<path class="st10" d="M514.1,330.5c1.8-0.4,2.3-0.7,3.1-1c-0.1-2.8-0.3-4.9-5-4.9c-2.1,0-5,0.4-6.4,2.6c-1.2,1.9-2.2,3.4-4.7,3.4
		c-1.7,0-4.3-1.1-4.3-3.8c0-3.3,2.5-5.8,4.4-6.9c2.6-1.6,5.4-2.4,10.9-2.4c11.5,0,15.4,3.2,15.4,12.7v8.9c0,1.5,0.1,2.7,0.6,4.4
		c0.9,2.9,1.1,2.8,1.1,3.9c0,2.1-2.1,4.2-5.1,4.2c-2.9,0-4.2-1.8-5.5-5.1c-3.7,3.1-7.7,5.1-12.3,5.1c-8.3,0-11.2-5.5-11.2-9.6
		c0-6.9,6.3-8.6,8.8-9.2L514.1,330.5z M510.8,337.2c-3.3,1.1-5,1.7-5,4.2c0,1.8,1.5,3.8,4.3,3.8c1.7,0,4.9-0.8,6.3-3.7
		c0.9-1.8,0.8-3.5,0.8-6C516.3,335.9,511.8,336.9,510.8,337.2z"/>
	<path class="st10" d="M560.8,351.7c-4.4,0-4.9-4-4.9-5.5c-1.6,2-4.5,5.5-10.5,5.5c-7.9,0-13.6-6.8-13.6-17.4
		c0-9.5,4.7-16.8,13.8-16.8c5.4,0,8.1,2.7,9.5,4.2v-7.8c0-3.8,0-5.8,1.4-7.2c1-1,2.5-1.6,3.9-1.6c1.8,0,3.1,0.9,3.9,1.7
		c1.4,1.4,1.4,3.3,1.4,7.2v29.5C565.7,347.6,565.6,351.7,560.8,351.7z M548.6,325.5c-5.8,0-6.2,6.7-6.2,9c0,1.4,0.1,9.1,6.2,9.1
		c1.2,0,6.6-0.4,6.6-9.1C555.2,333.2,555.2,325.5,548.6,325.5z"/>
	<path class="st10" d="M581.2,337.5c0.1,6,4.9,7.2,6.9,7.2c3.5,0,6.1-2.1,7.2-2.9c1.3-0.9,2.6-2,4.3-2c2.3,0,4.1,2,4.1,3.8
		c0,3.7-5.3,8.1-15.2,8.1c-13.7,0-18.2-8.6-18.2-17c0-7.1,3.7-17.1,17.3-17.1c12.4,0,16.2,9.3,16.2,13.9c0,1.3-0.4,4.3-3.5,5.5
		c-1.3,0.5-3.8,0.6-5.2,0.6H581.2z M593.6,331.8c0.1-4.2-2.5-7.2-6.3-7.2c-5.3,0-5.9,5.6-6,7.2H593.6z"/>
	<path class="st10" d="M644.4,351.7c-15.1,0-18.8-9.4-18.8-13.3c0-1.8,1.3-5,4.9-5c3.8,0,4.7,2.9,5.7,4.8c1.3,2.5,3,5.1,8.1,5.1
		c4.1,0,7.6-1.8,7.6-5.1c0-4.1-4.3-5.2-10.3-6.6c-5.2-1.3-15.3-3.7-15.3-13.7c0-8.4,7.7-12.8,18.1-12.8c14.3,0,16.8,8.8,16.8,10.9
		c0,3.1-1.8,5.1-4.5,5.1c-2.6,0-4.2-1.8-4.6-2.5c-2.3-3.3-2.8-4-4.7-4.9c-1.3-0.6-2.7-0.7-3.7-0.7c-3.7,0-6.6,1.4-6.6,3.8
		c0,3,4,4,9.5,5.2c3,0.7,8.9,2.5,12.1,4.7c3,2.2,4.7,6.3,4.7,10C663.3,344.9,657.2,351.7,644.4,351.7z"/>
	<path class="st10" d="M678.1,342.9c0,3.8-0.1,5.8-1.4,7.2c-0.8,0.8-2.1,1.6-3.9,1.6c-1.4,0-2.8-0.6-3.9-1.6
		c-1.4-1.4-1.4-3.4-1.4-7.2v-16.5c0-3.8,0-5.7,1.4-7.1c0.9-0.9,2.3-1.7,3.9-1.7c1.1,0,4.5,0.6,5.2,4.3c0.3,1.4,0.2,1.9,0.2,4.5
		V342.9z M672.7,314.9c-2.7,0-4.9-2.2-4.9-4.9s2.2-4.9,4.9-4.9s4.9,2.2,4.9,4.9S675.4,314.9,672.7,314.9z"/>
	<path class="st10" d="M735.2,342.9c0,3.8-0.1,5.8-1.4,7.2c-0.8,0.8-2.1,1.6-3.8,1.6c-1.4,0-2.9-0.6-4-1.6c-1.4-1.4-1.4-3.4-1.4-7.2
		v-10.6c0-2,0-6.6-4.3-6.6c-5.6,0-5.6,6.7-5.6,8.9v8.2c0,3.8,0,5.8-1.4,7.2c-0.8,0.8-2.1,1.6-3.9,1.6c-1.4,0-2.8-0.6-3.9-1.6
		c-1.4-1.4-1.4-3.4-1.4-7.2V333c0-3.8-0.4-7.3-4.2-7.3c-5.8,0-5.8,6.4-5.8,9v8.2c0,3.8,0,5.8-1.4,7.2c-0.8,0.8-2.1,1.6-3.8,1.6
		c-1.4,0-2.9-0.6-4-1.6c-1.4-1.4-1.4-3.4-1.4-7.2v-17.2c0-3.5,0.1-5.2,1.4-6.6c0.9-0.9,2.1-1.6,3.6-1.6c3.1,0,4.8,2.3,4.9,5.3
		c2.6-3,5.5-5.3,10.8-5.3c6.6,0,8.8,3.8,9.6,5.3c3-3.3,5.8-5.3,10.7-5.3c3.9,0,8.3,1.4,10.1,6.4c0.7,2,0.8,5.9,0.8,6.3V342.9z"/>
	<path class="st10" d="M751.1,355.3c0,3.8,0,5.8-1.4,7.2c-0.8,0.8-2.1,1.7-3.9,1.7c-1.4,0-2.8-0.6-3.9-1.6c-1.4-1.4-1.4-3.5-1.4-7.2
		v-29.5c0-3.6,0-5.3,1.3-6.6c0.9-0.8,2.1-1.6,3.7-1.6c3,0,4.7,1.9,4.9,5.5c0.9-1.3,4-5.5,10.3-5.5c7.3,0,13.7,5.9,13.7,17.1
		c0,10.4-6,17.1-13.9,17.1c-5.2,0-7.9-2.8-9.4-4.3V355.3z M751,334.4c0,8.7,5.4,9.1,6.6,9.1c2.3,0,6.2-1.4,6.2-9.1
		c0-7.3-3.7-8.9-6.2-8.9C754.8,325.5,751,327.2,751,334.4z"/>
	<path class="st10" d="M789.2,342.9c0,3.8,0,5.8-1.4,7.2c-0.8,0.8-2.1,1.6-3.9,1.6c-1.4,0-2.8-0.6-3.9-1.6c-1.4-1.4-1.4-3.4-1.4-7.2
		v-29c0-3.8,0.1-5.7,1.4-7.2c0.8-0.8,2.1-1.6,3.9-1.6c1.4,0,2.8,0.6,3.9,1.6c1.4,1.4,1.4,3.4,1.4,7.2V342.9z"/>
	<path class="st10" d="M804.8,337.5c0.1,6,4.9,7.2,6.9,7.2c3.5,0,6.1-2.1,7.2-2.9c1.3-0.9,2.6-2,4.3-2c2.3,0,4.1,2,4.1,3.8
		c0,3.7-5.3,8.1-15.2,8.1c-13.7,0-18.2-8.6-18.2-17c0-7.1,3.7-17.1,17.3-17.1c12.4,0,16.2,9.3,16.2,13.9c0,1.3-0.4,4.3-3.5,5.5
		c-1.3,0.5-3.8,0.6-5.2,0.6H804.8z M817.1,331.8c0.1-4.2-2.5-7.2-6.3-7.2c-5.3,0-5.9,5.6-6,7.2H817.1z"/>
</g>
</svg>
